<svg xmlns="http://www.w3.org/2000/svg" viewBox="0 0 24 24" fill="#f3e8ff">
    <path d="M12 .297C5.37.297 0 5.67 0 12.297c0 5.303 3.438 9.8 8.207 11.387.6.113.82-.258.82-.578 0-.285-.011-1.04-.016-2.04-3.338.727-4.043-1.609-4.043-1.609-.547-1.387-1.336-1.758-1.336-1.758-1.09-.746.082-.73.082-.73 1.207.086 1.844 1.242 1.844 1.242 1.07 1.836 2.809 1.305 3.492.996.109-.777.418-1.305.762-1.605-2.665-.301-5.466-1.332-5.466-5.93 0-1.31.468-2.38 1.238-3.22-.125-.304-.535-1.523.117-3.176 0 0 1.008-.324 3.3 1.23a11.48 11.48 0 0 1 3.004-.402c1.02.004 2.047.137 3.004.402 2.29-1.554 3.297-1.23 3.297-1.23.653 1.653.243 2.872.118 3.176.77.84 1.234 1.91 1.234 3.22 0 4.61-2.805 5.625-5.477 5.922.43.37.813 1.101.813 2.222 0 1.606-.016 2.899-.016 3.293 0 .32.215.696.825.578C20.565 22.094 24 17.598 24 12.297 24 5.67 18.627.297 12 .297z"/>
</svg>
